# Blender v3.0.1 OBJ File: 'dado pt2.blend'
# www.blender.org
mtllib dado pt2.mtl
o Icosphere.002_Icosphere.003
v -0.049123 1.033471 2.749405
v 0.482799 1.649429 2.083669
v -0.568623 1.653008 2.077213
v -0.897948 0.669025 2.247168
v -0.050037 0.057323 2.358661
v 0.803300 0.663250 2.257612
v -0.048468 1.012835 2.631195
v 0.446052 1.581725 1.991663
v -0.531211 1.585050 1.985662
v -0.837308 0.670470 2.143629
v -0.049202 0.101914 2.247258
v 0.743948 0.665103 2.153337
vt 0.181819 0.000000
vt 0.272728 0.157461
vt 0.090910 0.157461
vt 0.363637 0.000000
vt 0.454546 0.157461
vt 0.909091 0.000000
vt 1.000000 0.157461
vt 0.818182 0.157461
vt 0.727273 0.000000
vt 0.636364 0.157461
vt 0.545455 0.000000
vt 0.181819 0.000000
vt 0.090910 0.157461
vt 0.272728 0.157461
vt 0.454546 0.157461
vt 0.363637 0.000000
vt 0.909091 0.000000
vt 0.818182 0.157461
vt 1.000000 0.157461
vt 0.727273 0.000000
vt 0.636364 0.157461
vt 0.545455 0.000000
vn -0.0017 0.7347 0.6784
vn 0.5738 0.3195 0.7541
vn -0.5809 0.3234 0.7470
vn -0.3633 -0.3459 0.8651
vn 0.3503 -0.3484 0.8694
vn 0.0015 -0.7478 -0.6640
vn -0.5885 -0.3221 -0.7416
vn 0.5954 -0.3261 -0.7343
vn 0.3723 0.3602 -0.8553
vn -0.3594 0.3627 -0.8598
vn 0.0064 0.8042 -0.5943
vn 0.8543 0.1925 -0.4828
vn -0.8470 0.1983 -0.4933
vn -0.5265 -0.7880 -0.3193
vn 0.5250 -0.7915 -0.3129
usemtl None
s off
f 1/1/1 2/2/1 3/3/1
f 2/2/2 1/4/2 6/5/2
f 1/6/3 3/7/3 4/8/3
f 1/9/4 4/8/4 5/10/4
f 1/11/5 5/10/5 6/5/5
f 7/12/6 9/13/6 8/14/6
f 8/14/7 12/15/7 7/16/7
f 7/17/8 10/18/8 9/19/8
f 7/20/9 11/21/9 10/18/9
f 7/22/10 12/15/10 11/21/10
f 3/3/11 2/2/11 8/14/11 9/13/11
f 2/2/12 6/5/12 12/15/12 8/14/12
f 4/8/13 3/7/13 9/19/13 10/18/13
f 5/10/14 4/8/14 10/18/14 11/21/14
f 6/5/15 5/10/15 11/21/15 12/15/15
