# Blender v3.0.1 OBJ File: 'dado pt1.blend1'
# www.blender.org
mtllib dado pt1.mtl
o Icosphere.001_Icosphere.002
v 0.681320 0.995851 0.032013
v -0.370102 0.999429 0.025556
v 0.161240 1.012093 -0.881679
v 0.681320 0.995851 0.032013
v -0.370102 0.999429 0.025556
v -0.699427 0.015446 0.195511
v 0.148484 -0.596255 0.307004
v 1.001821 0.009672 0.205956
v 0.161240 1.012093 -0.881679
v -0.692097 0.406166 -0.780631
v -0.371596 -0.580013 -0.606688
v 0.679826 -0.583592 -0.600231
v 1.009150 0.400391 -0.770186
v 0.160326 0.035944 -1.272424
v 0.145434 -0.445344 0.293110
v -0.372426 -0.441766 -0.621958
v 0.678914 -0.429102 -0.612823
v 0.680859 0.855875 0.029790
v -0.370561 0.859450 0.023334
v 0.160781 0.872113 -0.883901
v 0.567698 0.915175 0.045467
v -0.257209 0.917980 0.040401
v -0.566390 0.055749 0.178877
v 0.149257 -0.467566 0.251891
v 0.869279 0.050874 0.187688
v 0.160287 0.917115 -0.778830
v -0.573524 0.378411 -0.711573
v -0.281246 -0.487829 -0.552484
v 0.589444 -0.490792 -0.547137
v 0.889552 0.373445 -0.702591
v 0.159561 0.060021 -1.134512
v 0.147136 -0.585320 0.291602
v -0.370725 -0.581742 -0.623466
v 0.680615 -0.569079 -0.614331
vt 0.090910 0.157461
vt 0.272728 0.157461
vt 0.181819 0.314921
vt 0.272728 0.157461
vt 0.454546 0.157461
vt 0.363637 0.314921
vt 0.818182 0.157461
vt 1.000000 0.157461
vt 0.909091 0.314921
vt 0.636364 0.157461
vt 0.727273 0.314921
vt 0.545455 0.314921
vt 0.181819 0.314921
vt 0.090910 0.157461
vt 0.000000 0.314921
vt 0.272728 0.472382
vt 0.090910 0.472382
vt 0.818182 0.472382
vt 0.636364 0.472382
vt 0.454546 0.472382
vt 0.090910 0.157461
vt 0.272728 0.157461
vt 0.181819 0.314921
vt 0.090910 0.157461
vt 0.181819 0.314921
vt 0.272728 0.157461
vt 0.272728 0.157461
vt 0.363637 0.314921
vt 0.454546 0.157461
vt 0.818182 0.157461
vt 0.909091 0.314921
vt 1.000000 0.157461
vt 0.636364 0.157461
vt 0.727273 0.314921
vt 0.545455 0.314921
vt 0.181819 0.314921
vt 0.090910 0.157461
vt 0.000000 0.314921
vt 0.272728 0.472382
vt 0.090910 0.472382
vt 0.818182 0.472382
vt 0.636364 0.472382
vt 0.454546 0.472382
vt 0.090910 0.157461
vt 0.181819 0.314921
vt 0.272728 0.157461
vn 0.0033 0.9999 0.0159
vn 0.9345 0.3281 0.1383
vn -0.9338 0.3345 0.1269
vn -0.5819 -0.7486 0.3179
vn 0.5728 -0.7525 0.3250
vn 0.5819 0.7486 -0.3179
vn -0.5728 0.7525 -0.3250
vn -0.9345 -0.3281 -0.1383
vn 0.9338 -0.3345 -0.1269
vn 0.3633 0.3459 -0.8651
vn -0.3503 0.3484 -0.8694
vn -0.5738 -0.3195 -0.7541
vn 0.0017 -0.7347 -0.6784
vn 0.5809 -0.3234 -0.7470
vn -0.0121 0.9999 0.0108
vn -0.0033 -0.9999 -0.0159
vn -0.9262 -0.3473 -0.1469
vn 0.9255 -0.3536 -0.1356
vn 0.5791 0.7461 -0.3287
vn -0.5699 0.7500 -0.3358
vn -0.5913 -0.7524 0.2905
vn 0.5825 -0.7563 0.2977
vn 0.9347 0.3364 0.1144
vn -0.9338 0.3428 0.1029
vn -0.3569 -0.3578 0.8629
vn 0.3439 -0.3602 0.8672
vn 0.5753 0.3315 0.7477
vn -0.0017 0.7288 0.6847
vn -0.5822 0.3354 0.7406
vn 0.0121 -0.9999 -0.0108
vn -0.0062 -0.0159 0.9999
vn -0.8629 0.0108 -0.5052
vn 0.8691 0.0050 -0.4946
vn -0.0440 0.1539 0.9871
vn 0.0329 0.1536 0.9876
vn 0.1140 0.3104 0.9437
vn -0.1235 0.3112 0.9423
vn 0.6564 0.6601 0.3652
vn -0.6563 0.6646 0.3572
vn 0.8228 -0.3413 -0.4544
vn -0.8194 -0.3358 -0.4645
vn -0.0070 -0.5017 0.8650
vn -0.8702 -0.0159 0.4924
vn 0.0086 0.0109 -0.9999
vn 0.8616 0.0050 0.5075
usemtl None
s off
f 2/1/1 1/2/1 3/3/1
f 4/4/2 8/5/2 13/6/2
f 6/7/3 5/8/3 10/9/3
f 7/10/4 6/7/4 11/11/4
f 8/5/5 7/10/5 12/12/5
f 4/4/6 13/6/6 9/13/6
f 5/14/7 9/13/7 10/15/7
f 6/7/8 10/9/8 11/11/8
f 8/5/9 12/12/9 13/6/9
f 9/13/10 13/6/10 14/16/10
f 10/15/11 9/13/11 14/17/11
f 11/11/12 10/9/12 14/18/12
f 12/12/13 11/11/13 14/19/13
f 13/6/14 12/12/14 14/20/14
f 16/21/15 15/22/15 17/23/15
f 19/24/16 20/25/16 18/26/16
f 21/27/17 30/28/17 25/29/17
f 23/30/18 27/31/18 22/32/18
f 24/33/19 28/34/19 23/30/19
f 25/29/20 29/35/20 24/33/20
f 21/27/21 26/36/21 30/28/21
f 22/37/22 27/38/22 26/36/22
f 23/30/23 28/34/23 27/31/23
f 25/29/24 30/28/24 29/35/24
f 26/36/25 31/39/25 30/28/25
f 27/38/26 31/40/26 26/36/26
f 28/34/27 31/41/27 27/31/27
f 29/35/28 31/42/28 28/34/28
f 30/28/29 31/43/29 29/35/29
f 33/44/30 34/45/30 32/46/30
f 1/2/31 2/1/31 19/24/31 18/26/31
f 2/1/32 3/3/32 20/25/32 19/24/32
f 3/3/33 1/2/33 18/26/33 20/25/33
f 8/5/34 4/4/34 21/27/34 25/29/34
f 5/8/35 6/7/35 23/30/35 22/32/35
f 6/7/36 7/10/36 24/33/36 23/30/36
f 7/10/37 8/5/37 25/29/37 24/33/37
f 9/13/38 5/14/38 22/37/38 26/36/38
f 4/4/39 9/13/39 26/36/39 21/27/39
f 7/10/40 11/11/40 28/34/40 24/33/40
f 12/12/41 7/10/41 24/33/41 29/35/41
f 11/11/42 12/12/42 29/35/42 28/34/42
f 15/22/43 16/21/43 33/44/43 32/46/43
f 16/21/44 17/23/44 34/45/44 33/44/44
f 17/23/45 15/22/45 32/46/45 34/45/45
o Icosphere.002_Icosphere.003
v -0.049123 1.033471 2.749405
v 0.482799 1.649429 2.083669
v -0.568623 1.653008 2.077213
v -0.897948 0.669025 2.247168
v -0.050037 0.057323 2.358661
v 0.803300 0.663250 2.257612
v -0.048468 1.012835 2.631195
v 0.446052 1.581725 1.991663
v -0.531211 1.585050 1.985662
v -0.837308 0.670470 2.143629
v -0.049202 0.101914 2.247258
v 0.743948 0.665103 2.153337
vt 0.181819 0.000000
vt 0.272728 0.157461
vt 0.090910 0.157461
vt 0.363637 0.000000
vt 0.454546 0.157461
vt 0.909091 0.000000
vt 1.000000 0.157461
vt 0.818182 0.157461
vt 0.727273 0.000000
vt 0.636364 0.157461
vt 0.545455 0.000000
vt 0.181819 0.000000
vt 0.090910 0.157461
vt 0.272728 0.157461
vt 0.454546 0.157461
vt 0.363637 0.000000
vt 0.909091 0.000000
vt 0.818182 0.157461
vt 1.000000 0.157461
vt 0.727273 0.000000
vt 0.636364 0.157461
vt 0.545455 0.000000
vn -0.0017 0.7347 0.6784
vn 0.5738 0.3195 0.7541
vn -0.5809 0.3234 0.7470
vn -0.3633 -0.3459 0.8651
vn 0.3503 -0.3484 0.8694
vn 0.0015 -0.7478 -0.6640
vn -0.5885 -0.3221 -0.7416
vn 0.5954 -0.3261 -0.7343
vn 0.3723 0.3602 -0.8553
vn -0.3594 0.3627 -0.8598
vn 0.0064 0.8042 -0.5943
vn 0.8543 0.1925 -0.4828
vn -0.8470 0.1983 -0.4933
vn -0.5265 -0.7880 -0.3193
vn 0.5250 -0.7915 -0.3129
usemtl None
s off
f 35/47/46 36/48/46 37/49/46
f 36/48/47 35/50/47 40/51/47
f 35/52/48 37/53/48 38/54/48
f 35/55/49 38/54/49 39/56/49
f 35/57/50 39/56/50 40/51/50
f 41/58/51 43/59/51 42/60/51
f 42/60/52 46/61/52 41/62/52
f 41/63/53 44/64/53 43/65/53
f 41/66/54 45/67/54 44/64/54
f 41/68/55 46/61/55 45/67/55
f 37/49/56 36/48/56 42/60/56 43/59/56
f 36/48/57 40/51/57 46/61/57 42/60/57
f 38/54/58 37/53/58 43/65/58 44/64/58
f 39/56/59 38/54/59 44/64/59 45/67/59
f 40/51/60 39/56/60 45/67/60 46/61/60
